<svg width="24" height="28" viewBox="0 0 24 28" fill="none" xmlns="http://www.w3.org/2000/svg"><g clip-path="url(#clip0_27_82)"><path d="M23.8519 28H0V26.821C0 20.2531 5.35114 14.9075 11.9259 14.9075C18.5007 14.9075 23.8519 20.2531 23.8519 26.821V28ZM2.43177 25.6421H21.4201C20.8362 20.9263 16.8019 17.2654 11.9259 17.2654C7.04996 17.2654 3.01564 20.9263 2.43177 25.6421Z" fill="black"></path><path d="M11.9257 13.2849C8.25785 13.2849 5.27637 10.3065 5.27637 6.64244C5.27637 2.97839 8.25785 0 11.9257 0V2.35789C9.55914 2.35789 7.63671 4.28144 7.63671 6.64244C7.63671 9.00343 9.56225 10.927 11.9257 10.927C14.2891 10.927 16.2147 9.00343 16.2147 6.64244C16.2147 6.27634 16.1681 5.91025 16.0749 5.55656L16.0656 5.52554C15.8762 5.00122 15.5438 4.37762 15.0283 4.33418C14.3295 4.27834 13.2518 5.32388 12.4071 6.87202L10.3356 5.74271C10.9878 4.54825 12.7736 1.79324 15.2146 1.98249C16.0221 2.04765 17.4942 2.4913 18.2986 4.75302L18.3514 4.92366C18.5005 5.48211 18.575 6.05917 18.575 6.63933C18.575 10.3034 15.5904 13.2818 11.9257 13.2818V13.2849Z" fill="black"></path></g><defs><clipPath id="clip0_27_82"><rect width="23.8519" height="28" fill="white"></rect></clipPath></defs></svg>