<svg width="28" height="28" viewBox="0 0 28 28" fill="none" xmlns="http://www.w3.org/2000/svg">
    <path d="M10.724 21.0015C4.81048 21.0015 0 16.2905 0 10.5023C0 4.71413 4.81048 0 10.724 0V2.35242C6.13478 2.35242 2.40208 6.00796 2.40208 10.5023C2.40208 14.9967 6.13478 18.6522 10.724 18.6522C15.3132 18.6522 19.0459 14.9967 19.0459 10.5023C19.0459 9.7966 18.9543 9.09706 18.771 8.41919L18.7425 8.33252C18.3285 7.19965 17.551 5.83772 16.1951 5.73248C14.2639 5.58391 12.0894 8.20871 10.8125 10.4992L8.70437 9.37254C9.76002 7.47822 12.6204 3.10458 16.3847 3.38934C17.5826 3.4822 19.7729 4.14769 21.015 7.56489L21.0877 7.79085C21.3279 8.67301 21.4512 9.58612 21.4512 10.5054C21.4512 16.2967 16.6407 21.0077 10.7272 21.0077L10.724 21.0015Z" fill="black"></path>
    <path d="M17.6334 16.4386L15.9585 18.1248L26.3277 28.0034L28.0026 26.3172L17.6334 16.4386Z" fill="black"></path>
  </svg>