<svg focusable="false" width="24" height="28" viewBox="0 0 24 28" fill="none" stroke="currentColor" class="icon" stroke-width="0.5">
    <path d="M23.4595 28H0V6.71692H23.4595V28ZM2.34533 25.6421H21.1141V9.07481H2.34533V25.6421Z" fill="black"></path>
    <path d="M16.399 9.0748H6.94364L6.61344 8.45119C6.26782 7.79967 5.91602 6.98371 5.91602 5.8451C5.91602 2.62161 8.52365 0 11.73 0C14.9363 0 17.5439 2.62161 17.5439 5.8451H15.1986C15.1986 3.92155 13.6433 2.3579 11.73 2.3579C9.81667 2.3579 8.26135 3.92155 8.26135 5.8451C8.26135 6.15535 8.30455 6.42527 8.4033 6.7169H11.9799C11.8133 6.61141 11.6343 6.50593 11.4491 6.40665L12.5724 4.33729C13.7883 5.00432 15.3405 6.0933 15.8405 7.50183L16.399 9.0779V9.0748Z" fill="black"></path>
</svg>